<svg width="20" height="21" viewBox="0 0 20 21" fill="none" xmlns="http://www.w3.org/2000/svg">
<path d="M14.167 5.50002H18.3337V7.16669H16.667V18C16.667 18.221 16.5792 18.433 16.4229 18.5893C16.2666 18.7456 16.0547 18.8334 15.8337 18.8334H4.16699C3.94598 18.8334 3.73402 18.7456 3.57774 18.5893C3.42146 18.433 3.33366 18.221 3.33366 18V7.16669H1.66699V5.50002H5.83366V3.00002C5.83366 2.77901 5.92146 2.56704 6.07774 2.41076C6.23402 2.25448 6.44598 2.16669 6.66699 2.16669H13.3337C13.5547 2.16669 13.7666 2.25448 13.9229 2.41076C14.0792 2.56704 14.167 2.77901 14.167 3.00002V5.50002ZM15.0003 7.16669H5.00033V17.1667H15.0003V7.16669ZM7.50033 3.83335V5.50002H12.5003V3.83335H7.50033Z" fill="white"/>
</svg>
