<svg width="20" height="20" viewBox="0 0 20 20" fill="none" xmlns="http://www.w3.org/2000/svg">
<path d="M3.5 16H5.5V18H17.5V2H5.5V4H3.5V1C3.5 0.734784 3.60536 0.48043 3.79289 0.292893C3.98043 0.105357 4.23478 0 4.5 0H18.5C18.7652 0 19.0196 0.105357 19.2071 0.292893C19.3946 0.48043 19.5 0.734784 19.5 1V19C19.5 19.2652 19.3946 19.5196 19.2071 19.7071C19.0196 19.8946 18.7652 20 18.5 20H4.5C4.23478 20 3.98043 19.8946 3.79289 19.7071C3.60536 19.5196 3.5 19.2652 3.5 19V16ZM5.5 9H12.5V11H5.5V14L0.5 10L5.5 6V9Z" fill="#262B43" fill-opacity="0.9"/>
</svg>
