<svg width="20" height="20" viewBox="0 0 20 20" fill="none" xmlns="http://www.w3.org/2000/svg">
<path d="M10 0C15.523 0 20 4.477 20 10C20 12.4 19.154 14.604 17.744 16.328L17.778 16.364L16.364 17.778L16.328 17.744C14.5436 19.2062 12.307 20.0036 10 20C4.477 20 0 15.523 0 10C0 4.477 4.477 0 10 0ZM2 10C1.99998 11.4969 2.41995 12.9638 3.21217 14.2339C4.00438 15.5041 5.13706 16.5264 6.48143 17.1848C7.82579 17.8432 9.32791 18.1112 10.817 17.9583C12.3061 17.8054 13.7225 17.2378 14.905 16.32L12.53 13.944C12.3558 13.9814 12.1782 14.0002 12 14H11V16H9V14H6.5V12H12C12.1249 12.0002 12.2455 11.9537 12.3378 11.8695C12.4301 11.7853 12.4876 11.6696 12.4989 11.5452C12.5102 11.4207 12.4745 11.2966 12.3988 11.1972C12.3231 11.0977 12.2129 11.0303 12.09 11.008L12 11H8C7.56116 11 7.13006 10.8845 6.75002 10.665C6.36998 10.4456 6.0544 10.13 5.83498 9.74997C5.61557 9.36993 5.50006 8.93882 5.50006 8.49998C5.50007 8.06115 5.61558 7.63004 5.835 7.25L3.679 5.094C2.58778 6.49628 1.99678 8.22317 2 10ZM10 2C8.152 2 6.45 2.627 5.095 3.68L7.47 6.055C7.64422 6.01791 7.82188 5.99948 8 6H9V4H11V6H13.5V8H8C7.87505 7.99977 7.75455 8.04633 7.66222 8.13051C7.56988 8.21469 7.51241 8.33039 7.50112 8.45482C7.48983 8.57926 7.52554 8.70341 7.60122 8.80283C7.6769 8.90225 7.78705 8.96974 7.91 8.992L8 9H12C12.4388 9.00001 12.8699 9.11553 13.25 9.33496C13.63 9.55439 13.9456 9.86998 14.165 10.25C14.3844 10.6301 14.4999 11.0612 14.4999 11.5C14.4999 11.9389 14.3844 12.37 14.165 12.75L16.321 14.905C17.2389 13.7224 17.8065 12.306 17.9593 10.8168C18.1121 9.32758 17.8441 7.82538 17.1856 6.48098C16.5271 5.13658 15.5046 4.00391 14.2343 3.21177C12.964 2.41963 11.497 1.99979 10 2Z" fill="#262B43" fill-opacity="0.9"/>
</svg>
