<svg width="20" height="22" viewBox="0 0 20 22" fill="none" xmlns="http://www.w3.org/2000/svg">
<path d="M5 4.78906V1.68359C5 1.40905 5.10536 1.14576 5.29289 0.951628C5.48043 0.757498 5.73478 0.648438 6 0.648438H14C14.2652 0.648438 14.5196 0.757498 14.7071 0.951628C14.8946 1.14576 15 1.40905 15 1.68359V4.78906H19C19.2652 4.78906 19.5196 4.89812 19.7071 5.09225C19.8946 5.28638 20 5.54968 20 5.82422V20.3164C20 20.5909 19.8946 20.8542 19.7071 21.0484C19.5196 21.2425 19.2652 21.3516 19 21.3516H1C0.734784 21.3516 0.48043 21.2425 0.292893 21.0484C0.105357 20.8542 0 20.5909 0 20.3164V5.82422C0 5.54968 0.105357 5.28638 0.292893 5.09225C0.48043 4.89812 0.734784 4.78906 1 4.78906H5ZM2 16.1758V19.2812H18V16.1758H2ZM2 14.1055H18V6.85938H2V14.1055ZM7 2.71875V4.78906H13V2.71875H7ZM9 11H11V13.0703H9V11Z" fill="#262B43" fill-opacity="0.9"/>
</svg>
