<svg width="19" height="22" viewBox="0 0 19 22" fill="none" xmlns="http://www.w3.org/2000/svg">
<path d="M17.9444 0.5C18.5271 0.5 19 0.9704 19 1.55V20.45C19 21.0296 18.5271 21.5 17.9444 21.5H3.16667C2.584 21.5 2.11111 21.0296 2.11111 20.45V18.35H0V16.25H2.11111V14.15H0V12.05H2.11111V9.95H0V7.85H2.11111V5.75H0V3.65H2.11111V1.55C2.11111 0.9704 2.584 0.5 3.16667 0.5H17.9444ZM16.8889 2.6H4.22222V19.4H16.8889V2.6ZM11.6111 6.8V9.95H14.7778V12.05H11.6101L11.6111 15.2H9.5L9.49894 12.05H6.33333V9.95H9.5V6.8H11.6111Z" fill="#262B43" fill-opacity="0.9"/>
</svg>
